<svg width="30" height="22" viewBox="0 0 30 22" fill="none" xmlns="http://www.w3.org/2000/svg">
<path d="M16.9999 13C15.8888 13 14.9444 12.6111 14.1666 11.8333C13.3888 11.0556 12.9999 10.1111 12.9999 9C12.9999 7.88889 13.3888 6.94444 14.1666 6.16667C14.9444 5.38889 15.8888 5 16.9999 5C18.111 5 19.0555 5.38889 19.8333 6.16667C20.611 6.94444 20.9999 7.88889 20.9999 9C20.9999 10.1111 20.611 11.0556 19.8333 11.8333C19.0555 12.6111 18.111 13 16.9999 13ZM6.33325 17.6667C5.78325 17.6667 5.31242 17.4708 4.92075 17.0792C4.52909 16.6875 4.33325 16.2167 4.33325 15.6667V2.33333C4.33325 1.78333 4.52909 1.3125 4.92075 0.920832C5.31242 0.529165 5.78325 0.333332 6.33325 0.333332H27.6666C28.2166 0.333332 28.6874 0.529165 29.0791 0.920832C29.4708 1.3125 29.6666 1.78333 29.6666 2.33333V15.6667C29.6666 16.2167 29.4708 16.6875 29.0791 17.0792C28.6874 17.4708 28.2166 17.6667 27.6666 17.6667H6.33325ZM9.66659 15.6667H24.3333C24.3333 14.7333 24.6555 13.9444 25.2999 13.3C25.9444 12.6556 26.7333 12.3333 27.6666 12.3333V5.66667C26.7333 5.66667 25.9444 5.34444 25.2999 4.7C24.6555 4.05555 24.3333 3.26667 24.3333 2.33333H9.66659C9.66659 3.26667 9.34436 4.05555 8.69992 4.7C8.05547 5.34444 7.26659 5.66667 6.33325 5.66667V12.3333C7.26659 12.3333 8.05547 12.6556 8.69992 13.3C9.34436 13.9444 9.66659 14.7333 9.66659 15.6667ZM25.6666 21.6667H2.33325C1.78325 21.6667 1.31242 21.4708 0.920752 21.0792C0.529085 20.6875 0.333252 20.2167 0.333252 19.6667V4.33333H2.33325V19.6667H25.6666V21.6667Z" fill="white" fill-opacity="0.5"/>
</svg>
