<svg width="30" height="22" viewBox="0 0 30 22" fill="none" xmlns="http://www.w3.org/2000/svg">
<path d="M0.266602 21.6667V18.5333C0.266602 17.7556 0.466602 17.05 0.866602 16.4167C1.2666 15.7833 1.82216 15.3111 2.53327 15C4.15549 14.2889 5.6166 13.7778 6.9166 13.4667C8.2166 13.1556 9.55549 13 10.9333 13C12.311 13 13.6444 13.1556 14.9333 13.4667C16.2222 13.7778 17.6777 14.2889 19.2999 15C20.011 15.3111 20.5722 15.7833 20.9833 16.4167C21.3944 17.05 21.5999 17.7556 21.5999 18.5333V21.6667H0.266602ZM23.5999 21.6667V18.5333C23.5999 17.1333 23.2444 15.9833 22.5333 15.0833C21.8222 14.1833 20.8888 13.4556 19.7333 12.9C21.2666 13.0778 22.711 13.3389 24.0666 13.6833C25.4222 14.0278 26.5222 14.4222 27.3666 14.8667C28.0999 15.2889 28.6777 15.8111 29.0999 16.4333C29.5222 17.0556 29.7333 17.7556 29.7333 18.5333V21.6667H23.5999ZM10.9333 10.9667C9.4666 10.9667 8.2666 10.5 7.33327 9.56667C6.39994 8.63333 5.93327 7.43333 5.93327 5.96667C5.93327 4.5 6.39994 3.3 7.33327 2.36667C8.2666 1.43333 9.4666 0.966667 10.9333 0.966667C12.3999 0.966667 13.5999 1.43333 14.5333 2.36667C15.4666 3.3 15.9333 4.5 15.9333 5.96667C15.9333 7.43333 15.4666 8.63333 14.5333 9.56667C13.5999 10.5 12.3999 10.9667 10.9333 10.9667ZM22.9333 5.96667C22.9333 7.43333 22.4666 8.63333 21.5333 9.56667C20.5999 10.5 19.3999 10.9667 17.9333 10.9667C17.6888 10.9667 17.4166 10.95 17.1166 10.9167C16.8166 10.8833 16.5444 10.8222 16.2999 10.7333C16.8333 10.1778 17.2388 9.49445 17.5166 8.68333C17.7944 7.87222 17.9333 6.96667 17.9333 5.96667C17.9333 4.96667 17.7944 4.08333 17.5166 3.31667C17.2388 2.55 16.8333 1.84445 16.2999 1.2C16.5444 1.13333 16.8166 1.07778 17.1166 1.03333C17.4166 0.988889 17.6888 0.966667 17.9333 0.966667C19.3999 0.966667 20.5999 1.43333 21.5333 2.36667C22.4666 3.3 22.9333 4.5 22.9333 5.96667ZM2.2666 19.6667H19.5999V18.5333C19.5999 18.1778 19.4944 17.8333 19.2833 17.5C19.0722 17.1667 18.811 16.9333 18.4999 16.8C16.8999 16.0889 15.5555 15.6111 14.4666 15.3667C13.3777 15.1222 12.1999 15 10.9333 15C9.6666 15 8.48327 15.1222 7.38327 15.3667C6.28327 15.6111 4.93327 16.0889 3.33327 16.8C3.02216 16.9333 2.7666 17.1667 2.5666 17.5C2.3666 17.8333 2.2666 18.1778 2.2666 18.5333V19.6667ZM10.9333 8.96667C11.7999 8.96667 12.5166 8.68333 13.0833 8.11667C13.6499 7.55 13.9333 6.83333 13.9333 5.96667C13.9333 5.1 13.6499 4.38333 13.0833 3.81667C12.5166 3.25 11.7999 2.96667 10.9333 2.96667C10.0666 2.96667 9.34994 3.25 8.78327 3.81667C8.2166 4.38333 7.93327 5.1 7.93327 5.96667C7.93327 6.83333 8.2166 7.55 8.78327 8.11667C9.34994 8.68333 10.0666 8.96667 10.9333 8.96667Z" fill="white" fill-opacity="0.5"/>
</svg>
